<?xml version="1.0" ?><!DOCTYPE svg  PUBLIC '-//W3C//DTD SVG 1.1//EN'  'http://www.w3.org/Graphics/SVG/1.1/DTD/svg11.dtd'><svg enable-background="new 0 0 75 75" height="75px" version="1.1" viewBox="0 0 75 75" width="75px" xml:space="preserve" xmlns="http://www.w3.org/2000/svg" xmlns:xlink="http://www.w3.org/1999/xlink"><g id="Layer_1"><g><g><path d="M61.873,25.473c-3.17,1.125-5.452,4.123-5.452,7.68s2.282,6.549,5.452,7.676     c3.17-1.127,5.452-4.119,5.452-7.676S65.043,26.598,61.873,25.473z" fill="#C6621E"/></g><g><path d="M61.873,41.578c-0.085,0-0.17-0.015-0.251-0.043c-3.56-1.266-5.951-4.635-5.951-8.383     c0-3.753,2.392-7.123,5.951-8.387c0.162-0.057,0.34-0.057,0.502,0c3.56,1.264,5.951,4.634,5.951,8.387     c0,3.748-2.392,7.117-5.951,8.383C62.043,41.563,61.958,41.578,61.873,41.578z M61.873,26.273     c-2.823,1.117-4.702,3.849-4.702,6.879c0,3.026,1.879,5.756,4.702,6.875c2.823-1.119,4.702-3.849,4.702-6.875     C66.575,30.122,64.696,27.391,61.873,26.273z" fill="#093260"/></g><g><path d="M64.804,43.512c0-3.396-2.754-6.148-6.15-6.148H31.799c-3.396,0-6.15,2.752-6.15,6.148v10.699     c0,0.064,0.017,0.123,0.02,0.188c-0.005,0.031-0.02,0.059-0.02,0.096v13.592c0,0.377,0.305,0.682,0.68,0.682h5.981     c0.377,0,0.68-0.305,0.68-0.682v-7.725h2.904v7.725c0,0.377,0.305,0.682,0.68,0.682h5.982c0.374,0,0.68-0.305,0.68-0.682v-7.725     h14.227v7.725c0,0.377,0.305,0.682,0.682,0.682h5.98c0.375,0,0.68-0.305,0.68-0.682V54.494c0-0.037-0.014-0.064-0.02-0.096     c0.004-0.064,0.02-0.123,0.02-0.188V43.512z" fill="#EA7628"/></g><g><path d="M58.653,40.498H31.799c-3.396,0-6.15,2.752-6.15,6.148v7.564c0,0.064,0.017,0.123,0.02,0.188     c-0.005,0.031-0.02,0.059-0.02,0.096v2.854c0,0.062,0.017,0.121,0.02,0.188c-0.005,0.031-0.02,0.059-0.02,0.094v10.457     c0,0.377,0.305,0.682,0.68,0.682h5.981c0.377,0,0.68-0.305,0.68-0.682v-4.59v-3.135h2.904v3.135v4.59     c0,0.377,0.305,0.682,0.68,0.682h5.982c0.374,0,0.68-0.305,0.68-0.682v-4.59v-3.135h14.227v3.135v4.59     c0,0.377,0.305,0.682,0.682,0.682h5.98c0.375,0,0.68-0.305,0.68-0.682V57.629c0-0.035-0.014-0.062-0.02-0.094     c0.004-0.066,0.02-0.125,0.02-0.188v-2.854c0-0.037-0.014-0.064-0.02-0.096c0.004-0.064,0.02-0.123,0.02-0.188v-7.564     C64.804,43.25,62.05,40.498,58.653,40.498z" fill="#D36B24"/></g><g><path d="M57.462,68.086c0,0.377,0.305,0.682,0.682,0.682h5.98c0.375,0,0.68-0.305,0.68-0.682V62.15L43.151,40.498     H31.799c-3.396,0-6.15,2.752-6.15,6.148v3.176l17.587,17.586v-3.912v-3.135h14.227v3.135V68.086z" fill="#C6621E"/></g><g><path d="M47.218,60.361v7.725c0,0.377,0.305,0.682,0.68,0.682h5.981c0.376,0,0.681-0.305,0.681-0.682v-7.725     H47.218z" fill="#A0490E"/></g><g><path d="M64.124,69.518h-5.98c-0.789,0-1.432-0.643-1.432-1.432v-6.975H43.985v6.975     c0,0.789-0.642,1.432-1.43,1.432h-5.982c-0.788,0-1.43-0.643-1.43-1.432v-6.975h-1.404v6.975c0,0.789-0.642,1.432-1.43,1.432     h-5.981c-0.788,0-1.43-0.643-1.43-1.432V54.494c0-0.032,0.005-0.078,0.011-0.124c-0.007-0.055-0.011-0.106-0.011-0.159V43.512     c0-3.804,3.096-6.898,6.9-6.898h26.854c3.805,0,6.9,3.095,6.9,6.898v10.699c0,0.054-0.004,0.105-0.01,0.156     c0.006,0.044,0.01,0.089,0.01,0.127v13.592C65.554,68.875,64.912,69.518,64.124,69.518z M43.235,59.611h14.227     c0.414,0,0.75,0.336,0.75,0.75v7.725l5.842-0.067V54.567c-0.003-0.013-0.005-0.023-0.007-0.03     c-0.011-0.061-0.015-0.122-0.012-0.184c0.003-0.05,0.01-0.097,0.017-0.145l0.002-10.697c0-2.977-2.423-5.398-5.4-5.398H31.799     c-2.978,0-5.4,2.422-5.4,5.398v10.699c0.004,0.025,0.018,0.128,0.019,0.153c0.003,0.05,0,0.101-0.008,0.15     c-0.003,0.019-0.007,0.037-0.011,0.055v13.517l5.911-0.068l-0.07-7.656c0-0.414,0.336-0.75,0.75-0.75h2.904     c0.414,0,0.75,0.336,0.75,0.75v7.725l5.912-0.068l-0.07-7.656C42.485,59.947,42.821,59.611,43.235,59.611z" fill="#093260"/></g><g><path d="M33.825,61.111h-2.904c-0.414,0-0.75-0.336-0.75-0.75s0.336-0.75,0.75-0.75h2.904     c0.414,0,0.75,0.336,0.75,0.75S34.239,61.111,33.825,61.111z" fill="#093260"/></g><g><path d="M53.879,69.518h-5.981c-0.788,0-1.43-0.643-1.43-1.432v-7.725c0-0.414,0.336-0.75,0.75-0.75h7.342     c0.414,0,0.75,0.336,0.75,0.75v7.725C55.31,68.875,54.668,69.518,53.879,69.518z M47.968,61.111v6.975l5.842-0.067v-6.907H47.968     z" fill="#093260"/></g><g><g><path d="M51.948,20.531H35.152h-0.151H24.622H24.47H7.675c0,4.494,3.498,8.158,7.916,8.445      c-0.008,0.154-0.023,0.303-0.023,0.459v11.273c0,4.916,3.986,8.902,8.902,8.902h10.683c4.916,0,8.903-3.986,8.903-8.902V29.436      c0-0.156-0.017-0.305-0.024-0.459C48.45,28.689,51.948,25.025,51.948,20.531z" fill="#EA7628"/></g><g><path d="M44.056,31.219v-1.783c0-0.156-0.017-0.305-0.024-0.459c3.653-0.238,6.669-2.785,7.608-6.199H35.152      h-0.151H24.622H24.47H7.983c0.938,3.414,3.955,5.961,7.607,6.199c-0.008,0.154-0.023,0.303-0.023,0.459v1.783      c0.008,0.002,0.016,0.004,0.023,0.004c-0.008,0.152-0.023,0.303-0.023,0.455v9.031c0,4.916,3.986,8.902,8.902,8.902h10.683      c4.916,0,8.903-3.986,8.903-8.902v-9.031c0-0.152-0.017-0.303-0.024-0.455C44.039,31.223,44.048,31.221,44.056,31.219z" fill="#C6621E"/></g><g><path d="M29.821,22.777h-5.199H24.47H7.983c0.938,3.414,3.955,5.961,7.607,6.199      c-0.008,0.154-0.023,0.303-0.023,0.459v1.783c0.008,0.002,0.016,0.004,0.023,0.004c-0.008,0.152-0.023,0.303-0.023,0.455v9.031      c0,4.916,3.986,8.902,8.902,8.902h5.352V22.777z" fill="#D36B24"/></g><g><g><path d="M15.567,29.598c0-0.154,0.016-0.307,0.023-0.459c-0.002,0-0.004,0-0.008,0       c-0.007,0.098-0.016,0.195-0.016,0.297V29.598z" fill="#A0490E"/></g><g><path d="M44.031,29.139c0.008,0.152,0.024,0.305,0.024,0.459v-0.162c0-0.102-0.009-0.199-0.017-0.297       C44.037,29.139,44.034,29.139,44.031,29.139z" fill="#A0490E"/></g><g><path d="M35.152,47.527H24.47c-4.916,0-8.902-3.986-8.902-8.9v2.082c0,4.916,3.986,8.902,8.902,8.902h10.683       c4.916,0,8.903-3.986,8.903-8.902v-2.082C44.056,43.541,40.068,47.527,35.152,47.527z" fill="#A0490E"/></g></g><g><g><line fill="#C6621E" x1="17.307" x2="15.159" y1="28.938" y2="28.938"/></g><g><line fill="#C6621E" x1="44.464" x2="42.315" y1="28.938" y2="28.938"/></g></g><g><g><path d="M20.451,20.531h3.281c-0.014-0.043-0.022-0.082-0.042-0.123l-2.594-5.795l1.834-2.225       c0.307-0.367,0.416-0.863,0.297-1.332L22.61,8.662c-0.205-0.805-1.025-1.287-1.83-1.082c-0.806,0.205-1.289,1.025-1.082,1.832       l0.426,1.654l-0.398,0.484l-1.985-4.43c-0.339-0.756-1.228-1.098-1.987-0.758c-0.759,0.34-1.098,1.229-0.759,1.988l3.158,7.049       l-0.827-0.131l-1.705-3.061c-0.406-0.727-1.321-0.988-2.048-0.582c-0.725,0.404-0.985,1.32-0.58,2.045l2.062,3.699       c0.225,0.404,0.623,0.682,1.076,0.754l3.49,0.555L20.451,20.531z" fill="#EAB818"/></g><g><path d="M39.173,20.531h-3.282c0.014-0.043,0.022-0.082,0.04-0.123l2.596-5.795l-1.834-2.225       c-0.307-0.367-0.416-0.863-0.297-1.332l0.617-2.395c0.205-0.805,1.025-1.287,1.83-1.082s1.289,1.025,1.082,1.832l-0.426,1.654       l0.398,0.484l1.985-4.43c0.339-0.756,1.228-1.098,1.987-0.758s1.098,1.229,0.76,1.988L41.471,15.4l0.827-0.131l1.705-3.061       c0.405-0.727,1.322-0.988,2.049-0.582c0.723,0.404,0.983,1.32,0.578,2.045l-2.061,3.699c-0.225,0.404-0.623,0.682-1.076,0.754       l-3.491,0.555L39.173,20.531z" fill="#EAB818"/></g></g><g><g><path d="M21.483,15.475l-0.387-0.861l1.834-2.225c0.088-0.104,0.154-0.223,0.209-0.344L22.61,9.992       c-0.205-0.805-1.025-1.287-1.83-1.082c-0.463,0.117-0.813,0.441-0.994,0.848l0.338,1.309l-0.262,0.318l0.262,1.012       l-0.398,0.486l-1.985-4.43c-0.339-0.758-1.228-1.098-1.987-0.76c-0.336,0.15-0.584,0.412-0.732,0.717l3.132,6.99l-0.642-0.104       l0.642,1.434l-0.827-0.133l-1.705-3.059c-0.406-0.729-1.321-0.986-2.048-0.582c-0.274,0.154-0.481,0.379-0.612,0.643       c0.012,0.023,0.019,0.049,0.032,0.072l2.062,3.699c0.225,0.404,0.623,0.682,1.076,0.754l3.49,0.555l0.831,1.852h2.7       l-2.055-4.588L21.483,15.475z" fill="#ED9015"/></g><g><path d="M38.526,15.943l-2.055,4.588h2.701l0.829-1.852l3.491-0.555c0.453-0.072,0.852-0.35,1.076-0.754       l2.061-3.699c0.014-0.023,0.021-0.049,0.033-0.072c-0.131-0.264-0.338-0.488-0.611-0.643c-0.727-0.404-1.644-0.146-2.049,0.582       l-1.705,3.059l-0.827,0.133l0.642-1.434L41.471,15.4l3.132-6.99c-0.148-0.305-0.396-0.566-0.732-0.717       c-0.76-0.338-1.648,0.002-1.987,0.76l-1.985,4.43l-0.398-0.486l0.262-1.012l-0.262-0.318l0.338-1.309       c-0.182-0.406-0.531-0.73-0.994-0.848c-0.805-0.205-1.625,0.277-1.83,1.082l-0.529,2.053c0.055,0.121,0.121,0.24,0.209,0.344       l1.834,2.225l-0.387,0.861L38.526,15.943z" fill="#ED9015"/></g></g><g><path d="M35.152,50.361H24.47c-5.322,0-9.652-4.33-9.652-9.652v-11.06c-4.48-0.649-7.893-4.521-7.893-9.118      c0-0.414,0.336-0.75,0.75-0.75h44.273c0.414,0,0.75,0.336,0.75,0.75c0,4.596-3.412,8.469-7.893,9.118v11.06      C44.806,46.031,40.476,50.361,35.152,50.361z M8.461,21.281c0.362,3.713,3.386,6.7,7.179,6.947      c0.409,0.026,0.721,0.377,0.7,0.786l-0.011,0.168c-0.006,0.083-0.012,0.167-0.012,0.253v11.273c0,4.495,3.657,8.152,8.152,8.152      h10.683c4.496,0,8.153-3.657,8.153-8.152V29.436c0-0.084-0.007-0.164-0.012-0.245l-0.012-0.176      c-0.021-0.41,0.291-0.76,0.7-0.786c3.794-0.247,6.817-3.234,7.18-6.947H8.461z" fill="#093260"/></g><g><g><path d="M17.307,29.688h-2.147c-0.414,0-0.75-0.336-0.75-0.75s0.336-0.75,0.75-0.75h2.147       c0.414,0,0.75,0.336,0.75,0.75S17.721,29.688,17.307,29.688z" fill="#093260"/></g><g><path d="M44.464,29.688h-2.148c-0.414,0-0.75-0.336-0.75-0.75s0.336-0.75,0.75-0.75h2.148       c0.414,0,0.75,0.336,0.75,0.75S44.878,29.688,44.464,29.688z" fill="#093260"/></g></g><g><g><path d="M23.732,21.281h-3.281c-0.295,0-0.563-0.174-0.685-0.443l-0.665-1.481l-3.09-0.491       c-0.677-0.107-1.28-0.53-1.613-1.13l-2.062-3.698c-0.293-0.524-0.364-1.132-0.2-1.711c0.164-0.58,0.544-1.061,1.07-1.354       c0.652-0.364,1.481-0.368,2.121-0.039L14.31,8.658c-0.507-1.136,0.004-2.472,1.137-2.979c1.111-0.495,2.485,0.036,2.979,1.136       l0.629,1.403c0.044-0.114,0.099-0.225,0.162-0.332c0.307-0.518,0.797-0.884,1.38-1.032c1.187-0.307,2.44,0.444,2.741,1.623       l0.617,2.393c0.179,0.704,0.011,1.451-0.448,2l-1.534,1.862l2.403,5.37c0.014,0.031,0.057,0.151,0.066,0.184       c0.067,0.227,0.028,0.489-0.113,0.678C24.187,21.152,23.969,21.281,23.732,21.281z M20.937,19.781h1.651l-2.176-4.861       c-0.116-0.261-0.075-0.563,0.105-0.784l1.834-2.225c0.154-0.185,0.209-0.434,0.149-0.67L21.884,8.85       c-0.101-0.396-0.518-0.646-0.918-0.543c-0.194,0.05-0.357,0.172-0.46,0.344c-0.103,0.174-0.132,0.378-0.081,0.575l0.426,1.654       c0.06,0.231,0.005,0.478-0.147,0.663l-0.398,0.484c-0.165,0.201-0.423,0.304-0.679,0.267c-0.258-0.034-0.479-0.199-0.585-0.437       l-1.985-4.43c-0.164-0.366-0.623-0.548-0.996-0.38c-0.38,0.17-0.55,0.618-0.381,0.998l3.158,7.048       c0.112,0.251,0.078,0.544-0.089,0.763c-0.168,0.219-0.442,0.326-0.713,0.285l-0.827-0.131       c-0.228-0.036-0.426-0.175-0.538-0.376l-1.705-3.061c-0.196-0.351-0.667-0.493-1.026-0.293       c-0.177,0.099-0.304,0.26-0.358,0.453s-0.031,0.396,0.066,0.571l2.062,3.7c0.111,0.201,0.313,0.343,0.539,0.379l3.49,0.555       c0.249,0.039,0.463,0.202,0.566,0.434L20.937,19.781z" fill="#093260"/></g><g><path d="M39.173,21.281h-3.282c-0.239,0-0.464-0.114-0.605-0.308s-0.182-0.441-0.109-0.67       c0.023-0.079,0.041-0.134,0.065-0.19l2.41-5.382l-1.538-1.865c-0.455-0.546-0.623-1.293-0.444-1.994l0.617-2.397       c0.301-1.176,1.548-1.927,2.742-1.621c0.582,0.148,1.072,0.515,1.379,1.032c0.063,0.107,0.117,0.219,0.162,0.332l0.629-1.403       c0.493-1.101,1.868-1.633,2.979-1.136c1.133,0.507,1.644,1.843,1.139,2.978l-1.02,2.275c0.641-0.327,1.469-0.324,2.122,0.041       c1.084,0.606,1.473,1.981,0.866,3.065l-2.06,3.698c-0.333,0.599-0.937,1.021-1.613,1.129l-3.091,0.491l-0.663,1.481       C39.736,21.107,39.469,21.281,39.173,21.281z M37.033,19.781h1.653l0.631-1.408c0.104-0.231,0.316-0.395,0.566-0.434       l3.491-0.555c0.226-0.036,0.428-0.178,0.539-0.378l2.061-3.7c0.203-0.363,0.073-0.822-0.289-1.025       c-0.358-0.199-0.831-0.059-1.027,0.293l-1.705,3.061c-0.112,0.201-0.311,0.34-0.538,0.376l-0.827,0.131       c-0.271,0.042-0.545-0.066-0.713-0.285c-0.167-0.219-0.201-0.512-0.089-0.763l3.159-7.049c0.169-0.379-0.002-0.827-0.382-0.997       c-0.373-0.168-0.832,0.014-0.996,0.38l-1.985,4.43c-0.106,0.237-0.327,0.402-0.585,0.437c-0.256,0.037-0.514-0.065-0.679-0.267       l-0.398-0.484c-0.152-0.186-0.207-0.432-0.147-0.663l0.426-1.654c0.051-0.196,0.021-0.4-0.081-0.574       c-0.103-0.173-0.266-0.295-0.46-0.345c-0.401-0.104-0.818,0.147-0.918,0.541l-0.617,2.396c-0.06,0.233-0.005,0.482,0.146,0.664       l1.838,2.228c0.181,0.221,0.222,0.524,0.105,0.784L37.033,19.781z" fill="#093260"/></g></g><g><g><path d="M24.996,35.822c-0.414,0-0.75-0.336-0.75-0.75c0-0.646-0.525-1.17-1.171-1.17       c-0.646,0-1.172,0.524-1.172,1.17c0,0.414-0.336,0.75-0.75,0.75s-0.75-0.336-0.75-0.75c0-1.473,1.198-2.67,2.672-2.67       c1.473,0,2.671,1.197,2.671,2.67C25.746,35.486,25.41,35.822,24.996,35.822z" fill="#093260"/></g><g><path d="M38.469,35.822c-0.414,0-0.75-0.336-0.75-0.75c0-0.646-0.525-1.17-1.171-1.17s-1.17,0.524-1.17,1.17       c0,0.414-0.336,0.75-0.75,0.75s-0.75-0.336-0.75-0.75c0-1.473,1.197-2.67,2.67-2.67s2.671,1.197,2.671,2.67       C39.219,35.486,38.883,35.822,38.469,35.822z" fill="#093260"/></g></g><g><g><path d="M27.34,44.139c-1.776,0-3.222-1.445-3.222-3.223c0-0.414,0.336-0.75,0.75-0.75s0.75,0.336,0.75,0.75       c0,0.95,0.772,1.723,1.722,1.723s1.722-0.772,1.722-1.723v-3.553c0-0.414,0.336-0.75,0.75-0.75s0.75,0.336,0.75,0.75v3.553       C30.562,42.693,29.116,44.139,27.34,44.139z" fill="#093260"/></g><g><path d="M32.284,44.139c-1.777,0-3.223-1.445-3.223-3.223v-3.553c0-0.414,0.336-0.75,0.75-0.75       s0.75,0.336,0.75,0.75v3.553c0,0.95,0.772,1.723,1.723,1.723c0.949,0,1.721-0.772,1.721-1.723c0-0.414,0.336-0.75,0.75-0.75       s0.75,0.336,0.75,0.75C35.505,42.693,34.061,44.139,32.284,44.139z" fill="#093260"/></g></g><g><g><path d="M29.812,39.211c-0.178,0-0.355-0.07-0.492-0.205l-2.078-2.08c-0.2-0.197-0.26-0.496-0.152-0.758       c0.107-0.26,0.361-0.43,0.645-0.43h4.156c0.283,0,0.537,0.17,0.644,0.43c0.108,0.262,0.049,0.561-0.15,0.758l-2.079,2.08       C30.168,39.141,29.989,39.211,29.812,39.211z" fill="#BC2A54"/></g></g><g><path d="M29.812,39.211c0.178,0,0.356-0.07,0.492-0.205l1.96-1.961c-0.11-0.068-0.237-0.109-0.374-0.109h-4.156      c-0.137,0-0.264,0.041-0.373,0.109l1.959,1.961C29.456,39.141,29.634,39.211,29.812,39.211z" fill="#962248"/></g><g><g><path d="M29.812,39.961c-0.382,0-0.743-0.149-1.019-0.421l-2.082-2.084c-0.414-0.408-0.54-1.027-0.315-1.573       c0.225-0.544,0.75-0.895,1.338-0.895h4.156c0.59,0,1.114,0.352,1.338,0.896c0.225,0.542,0.101,1.161-0.317,1.575l-2.076,2.077       C30.558,39.811,30.195,39.961,29.812,39.961z M27.861,36.485l1.95,1.952l2.041-2.042L27.861,36.485z" fill="#093260"/></g></g><g><g><g><g><polygon fill="#1BC1A9" points="22.449,20.943 16.859,28.291 12.28,18.135 21.488,18.811        "/></g><g><polygon fill="#109BAD" points="13.372,20.557 16.859,28.291 22.246,21.213        "/></g><g><path d="M16.859,29.041c-0.028,0-0.057-0.002-0.085-0.005c-0.263-0.03-0.49-0.196-0.599-0.437l-4.579-10.156         c-0.108-0.241-0.083-0.521,0.069-0.738c0.151-0.217,0.411-0.329,0.669-0.318l9.208,0.676c0.274,0.021,0.516,0.189,0.629,0.44         l0.961,2.133c0.113,0.25,0.08,0.543-0.087,0.762l-5.59,7.348C17.313,28.933,17.092,29.041,16.859,29.041z M13.481,18.975         l3.544,7.859l4.557-5.989l-0.594-1.319L13.481,18.975z" fill="#093260"/></g></g><g><g><polygon fill="#1BC1A9" points="21.488,18.811 27.079,11.463 31.657,21.623 22.449,20.943        "/></g><g><polygon fill="#109BAD" points="31.657,21.623 28.172,13.889 22.785,20.971        "/></g><g><path d="M31.657,22.373c-0.019,0-0.037-0.001-0.056-0.002l-9.208-0.68c-0.273-0.021-0.516-0.189-0.628-0.44         l-0.961-2.133c-0.113-0.25-0.08-0.543,0.087-0.762l5.591-7.348c0.16-0.211,0.418-0.317,0.682-0.291         c0.263,0.03,0.49,0.196,0.599,0.437l4.514,10.019c0.095,0.125,0.15,0.281,0.15,0.45c0,0.414-0.335,0.75-0.75,0.75         C31.669,22.372,31.663,22.372,31.657,22.373z M22.949,20.229l7.507,0.554l-3.543-7.862l-4.558,5.989L22.949,20.229z" fill="#093260"/></g></g></g><g><path d="M25.384,20.074c0.402,0.893,0.004,1.943-0.891,2.346l-2.291,1.035c-0.893,0.4-1.944,0.004-2.347-0.889       l-1.3-2.885c-0.402-0.895-0.005-1.945,0.89-2.348l2.292-1.035c0.893-0.4,1.942-0.004,2.346,0.891L25.384,20.074z" fill="#1BC1A9"/></g><g><path d="M22.837,18.744l-2.291,1.035c-0.894,0.402-1.291,1.453-0.889,2.346l0.198,0.441       c0.402,0.893,1.454,1.289,2.347,0.889l2.291-1.035c0.895-0.402,1.293-1.453,0.891-2.346l-0.199-0.441       C24.782,18.74,23.73,18.344,22.837,18.744z" fill="#109BAD"/></g><g><path d="M21.476,24.361c-0.992,0-1.896-0.584-2.304-1.486l-1.3-2.886c-0.277-0.615-0.298-1.301-0.06-1.932       c0.239-0.631,0.71-1.131,1.325-1.407l2.291-1.035c1.243-0.558,2.784,0.035,3.338,1.266l1.301,2.885       c0.277,0.615,0.298,1.301,0.059,1.932c-0.239,0.63-0.71,1.13-1.325,1.406l-2.29,1.035       C22.181,24.286,21.833,24.361,21.476,24.361z M22.463,16.893c-0.145,0-0.285,0.03-0.419,0.091l-2.29,1.034       c-0.251,0.112-0.441,0.315-0.538,0.571c-0.098,0.256-0.089,0.535,0.023,0.785l1.3,2.885c0.225,0.497,0.851,0.742,1.356,0.512       l2.289-1.034c0.251-0.112,0.442-0.315,0.539-0.571s0.089-0.534-0.023-0.782l-1.301-2.885       C23.233,17.13,22.866,16.893,22.463,16.893z" fill="#093260"/></g></g></g></g></g></svg>